<svg id="Layer_1" data-name="Layer 1" xmlns="http://www.w3.org/2000/svg" viewBox="0 0 382.05 386.19">
<path d="M112.78,220.43c-6.51-19.16-7-41.31-1.76-66.09Q122.09,102.92,152.15,80c14.24-10,29.53-15.11,45.35-15.11,14.24,0,26.9,3,38,
        9.14,23.56,13.53,37.09,38,40.61,73a209.73,209.73,0,0,1-4,62.57c-2.29,11.08-7.56,27.78-15.65,49.75S232.66,306,209.11,333.64a277.56,277.56,
        0,0,1-38.5,37.44c-18.81,14.94-36.56,22.5-53.09,22.5-15.64,0-26.72-5.8-33.39-17.23A45.71,45.71,0,0,1,79,356.14c-.35-9,1-20.57,4-34.81a379.65,
        379.65,0,0,1,33.05-92.64A66.94,66.94,0,0,1,112.78,220.43Zm2.46,26.37C104,272.64,95.73,297.42,90.63,321.51a210.65,210.65,0,0,0-4,27.42c-1.06,
        17.58,3.16,29.53,12.83,36A33,33,0,0,0,115.24,389c9.31,0,19.33-3,30.06-8.79a186.78,186.78,0,0,0,40.6-31.82,299.8,299.8,0,0,0,33.23-38.67c23.2-32.87,
        38.67-67.15,46.4-103.18,5.45-25.32,6-49.75,1.76-73.48a103.21,103.21,0,0,0-15.12-37.44,58.77,58.77,0,0,0-31.64-23.38,65,65,0,0,0-18.46-2.64,
        78.53,78.53,0,0,0-21.62,3.17q-22.93,7.38-38,27.42A127.84,127.84,0,0,0,121.92,144c-1.41,4.39-2.46,9-3.52,13.36-5.1,24.61-4.57,45.88,1.76,63.63,
        22.5-44.3,45.53-71,69.26-79.8H190a4,4,0,0,1,2.46.7c.7.53,1.05,1,.88,1.4a1,1,0,0,1-.53.71,68.61,68.61,0,0,0-19.69,11.95c-10.37,9-20.57,22.15-30.76,
        39.2-6.86,11.07-13,22.5-18.81,33.93a68.26,68.26,0,0,0,3.34,6.15c7.38,12.13,18.11,20.39,32.34,25.13,1.59.53,2.11,1.24,1.94,
        2.47-.18.35-.71.52-1.94.52a60.63,60.63,0,0,1-19.68-7.73,68,68,0,0,1-19.34-19.51C118.58,239.59,116.82,243.11,115.24,246.8Z"
        fill="white" transform="translate(-78.97 -61.17)"/>
<path d="M430.24,283.89c1.05,0,1.58,0,1.58.18H432l-30.94,22.67c-15.12,11.08-29.18,22.5-42.36,34.1,7,22.68,9,42,5.44,58.19-4.21,20-15.11,
        34.63-32.51,43.94a44,44,0,0,1-18.29,4.4,33.09,33.09,0,0,1-15.82-4.05,24.13,24.13,0,0,1-10.89-10.9c-2.11-4.21-2.64-9.14-1.41-14.76,
        1.93-9.32,10-21.09,24.61-35.51,9.14-10.37,22.32-23.55,39.72-39.37l.71-.53a274,274,0,0,
        0-9.67-26.37c-3.34-7.73-6.68-15.64-10.37-23.55-6.68-14.42-12.83-29.36-18.28-44.65-10.2-28.48-12.66-55-7.56-79.45a146.56,146.56,0,0,1,
        5.8-19.69C321.08,121.29,338.83,98.79,364,81a114.18,114.18,0,0,1,39.37-18.11,60.67,60.67,0,0,1,14.77-1.76,51,51,0,0,1,23.55,5.45,36.05,
        36.05,0,0,1,18.11,25.67,77.73,77.73,0,0,1-.7,31.11q-12.13,48.25-47.11,87a3,3,0,0,1-1.58.35c-1.06-.35-1.41-.87-1.24-1.4a250.49,250.49,0,0,
        0,36.22-61,130.44,130.44,0,0,0,6.85-21.79c5.1-24.26,2.46-41.66-7.91-52-6-5.27-13.53-7.91-22.85-7.91a68.3,68.3,0,0,0-13,1.41,108.31,108.31,
        0,0,0-39.9,19,156,156,0,0,0-32.17,32.35c-11.25,15.82-18.81,32.52-22.5,50.27a116.87,116.87,0,0,0-2.46,33.93,161.31,161.31,0,0,0,9.49,45.7,
        446.23,446.23,0,0,0,17.58,42.19c5.8,12.13,11.07,24.61,16,37.26a62.25,62.25,0,0,1,2.63,7.39C382.07,314.83,406.33,297.42,430.24,283.89ZM303,
        399.55a51.83,51.83,0,0,0-10.37,20.92,16.9,16.9,0,0,0,4.57,16,19,19,0,0,0,13.54,5.27h4.57c2.81-.17,6.85-1.76,12.48-5.1q21.89-14.49,
        27.42-40.6c2.81-13.54,1.76-29.88-3.52-48.87A436.09,436.09,0,0,0,303,399.55Z"
        fill="white" transform="translate(-78.97 -61.17)"/>
</svg>